<?xml version="1.0" standalone="no"?>
<svg xmlns:xlink="http://www.w3.org/1999/xlink" id="wave" style="transform:rotate(0deg); transition: 0.3s" viewBox="0 0 1440 100" version="1.1" xmlns="http://www.w3.org/2000/svg"><defs><linearGradient id="sw-gradient-0" x1="0" x2="0" y1="1" y2="0"><stop stop-color="#eff1f5" offset="0%"/><stop stop-color="#eff1f5" offset="100%"/></linearGradient></defs><path style="transform:translate(0, 0px); opacity:1" fill="url(#sw-gradient-0)" d="M0,40L20,36.7C40,33,80,27,120,35C160,43,200,67,240,68.3C280,70,320,50,360,36.7C400,23,440,17,480,23.3C520,30,560,50,600,58.3C640,67,680,63,720,55C760,47,800,33,840,33.3C880,33,920,47,960,50C1000,53,1040,47,1080,48.3C1120,50,1160,60,1200,63.3C1240,67,1280,63,1320,56.7C1360,50,1400,40,1440,38.3C1480,37,1520,43,1560,38.3C1600,33,1640,17,1680,11.7C1720,7,1760,13,1800,23.3C1840,33,1880,47,1920,55C1960,63,2000,67,2040,65C2080,63,2120,57,2160,53.3C2200,50,2240,50,2280,51.7C2320,53,2360,57,2400,55C2440,53,2480,47,2520,43.3C2560,40,2600,40,2640,43.3C2680,47,2720,53,2760,60C2800,67,2840,73,2860,76.7L2880,80L2880,100L2860,100C2840,100,2800,100,2760,100C2720,100,2680,100,2640,100C2600,100,2560,100,2520,100C2480,100,2440,100,2400,100C2360,100,2320,100,2280,100C2240,100,2200,100,2160,100C2120,100,2080,100,2040,100C2000,100,1960,100,1920,100C1880,100,1840,100,1800,100C1760,100,1720,100,1680,100C1640,100,1600,100,1560,100C1520,100,1480,100,1440,100C1400,100,1360,100,1320,100C1280,100,1240,100,1200,100C1160,100,1120,100,1080,100C1040,100,1000,100,960,100C920,100,880,100,840,100C800,100,760,100,720,100C680,100,640,100,600,100C560,100,520,100,480,100C440,100,400,100,360,100C320,100,280,100,240,100C200,100,160,100,120,100C80,100,40,100,20,100L0,100Z"/></svg>